<?xml version="1.0" encoding="utf-8"?>
<svg xmlns="http://www.w3.org/2000/svg" version="1.1" width="200" height="200">
<rect width="20" height="20" x="-20" y="-20" fill="white" />
<rect width="20" height="20" x="0" y="-20" fill="white" />
<rect width="20" height="20" x="20" y="-20" fill="red" />
<rect width="20" height="20" x="40" y="-20" fill="black" />
<rect width="20" height="20" x="60" y="-20" fill="white" />
<rect width="20" height="20" x="80" y="-20" fill="white" />
<rect width="20" height="20" x="100" y="-20" fill="blue" />
<rect width="20" height="20" x="120" y="-20" fill="green" />
<rect width="20" height="20" x="140" y="-20" fill="green" />
<rect width="20" height="20" x="160" y="-20" fill="blue" />
<rect width="20" height="20" x="-20" y="0" fill="red" />
<rect width="20" height="20" x="0" y="0" fill="white" />
<rect width="20" height="20" x="20" y="0" fill="black" />
<rect width="20" height="20" x="40" y="0" fill="green" />
<rect width="20" height="20" x="60" y="0" fill="black" />
<rect width="20" height="20" x="80" y="0" fill="white" />
<rect width="20" height="20" x="100" y="0" fill="green" />
<rect width="20" height="20" x="120" y="0" fill="black" />
<rect width="20" height="20" x="140" y="0" fill="blue" />
<rect width="20" height="20" x="160" y="0" fill="black" />
<rect width="20" height="20" x="-20" y="20" fill="white" />
<rect width="20" height="20" x="0" y="20" fill="white" />
<rect width="20" height="20" x="20" y="20" fill="green" />
<rect width="20" height="20" x="40" y="20" fill="white" />
<rect width="20" height="20" x="60" y="20" fill="black" />
<rect width="20" height="20" x="80" y="20" fill="red" />
<rect width="20" height="20" x="100" y="20" fill="black" />
<rect width="20" height="20" x="120" y="20" fill="green" />
<rect width="20" height="20" x="140" y="20" fill="red" />
<rect width="20" height="20" x="160" y="20" fill="blue" />
<rect width="20" height="20" x="-20" y="40" fill="white" />
<rect width="20" height="20" x="0" y="40" fill="blue" />
<rect width="20" height="20" x="20" y="40" fill="green" />
<rect width="20" height="20" x="40" y="40" fill="black" />
<rect width="20" height="20" x="60" y="40" fill="black" />
<rect width="20" height="20" x="80" y="40" fill="black" />
<rect width="20" height="20" x="100" y="40" fill="white" />
<rect width="20" height="20" x="120" y="40" fill="white" />
<rect width="20" height="20" x="140" y="40" fill="red" />
<rect width="20" height="20" x="160" y="40" fill="red" />
<rect width="20" height="20" x="-20" y="60" fill="green" />
<rect width="20" height="20" x="0" y="60" fill="green" />
<rect width="20" height="20" x="20" y="60" fill="black" />
<rect width="20" height="20" x="40" y="60" fill="white" />
<rect width="20" height="20" x="60" y="60" fill="blue" />
<rect width="20" height="20" x="80" y="60" fill="white" />
<rect width="20" height="20" x="100" y="60" fill="red" />
<rect width="20" height="20" x="120" y="60" fill="red" />
<rect width="20" height="20" x="140" y="60" fill="blue" />
<rect width="20" height="20" x="160" y="60" fill="red" />
<rect width="20" height="20" x="-20" y="80" fill="green" />
<rect width="20" height="20" x="0" y="80" fill="white" />
<rect width="20" height="20" x="20" y="80" fill="black" />
<rect width="20" height="20" x="40" y="80" fill="black" />
<rect width="20" height="20" x="60" y="80" fill="red" />
<rect width="20" height="20" x="80" y="80" fill="black" />
<rect width="20" height="20" x="100" y="80" fill="red" />
<rect width="20" height="20" x="120" y="80" fill="green" />
<rect width="20" height="20" x="140" y="80" fill="red" />
<rect width="20" height="20" x="160" y="80" fill="white" />
<rect width="20" height="20" x="-20" y="100" fill="red" />
<rect width="20" height="20" x="0" y="100" fill="black" />
<rect width="20" height="20" x="20" y="100" fill="red" />
<rect width="20" height="20" x="40" y="100" fill="white" />
<rect width="20" height="20" x="60" y="100" fill="red" />
<rect width="20" height="20" x="80" y="100" fill="green" />
<rect width="20" height="20" x="100" y="100" fill="green" />
<rect width="20" height="20" x="120" y="100" fill="blue" />
<rect width="20" height="20" x="140" y="100" fill="black" />
<rect width="20" height="20" x="160" y="100" fill="white" />
<rect width="20" height="20" x="-20" y="120" fill="red" />
<rect width="20" height="20" x="0" y="120" fill="green" />
<rect width="20" height="20" x="20" y="120" fill="black" />
<rect width="20" height="20" x="40" y="120" fill="blue" />
<rect width="20" height="20" x="60" y="120" fill="black" />
<rect width="20" height="20" x="80" y="120" fill="blue" />
<rect width="20" height="20" x="100" y="120" fill="white" />
<rect width="20" height="20" x="120" y="120" fill="green" />
<rect width="20" height="20" x="140" y="120" fill="red" />
<rect width="20" height="20" x="160" y="120" fill="green" />
<rect width="20" height="20" x="-20" y="140" fill="red" />
<rect width="20" height="20" x="0" y="140" fill="blue" />
<rect width="20" height="20" x="20" y="140" fill="black" />
<rect width="20" height="20" x="40" y="140" fill="red" />
<rect width="20" height="20" x="60" y="140" fill="blue" />
<rect width="20" height="20" x="80" y="140" fill="green" />
<rect width="20" height="20" x="100" y="140" fill="black" />
<rect width="20" height="20" x="120" y="140" fill="blue" />
<rect width="20" height="20" x="140" y="140" fill="black" />
<rect width="20" height="20" x="160" y="140" fill="green" />
<rect width="20" height="20" x="-20" y="160" fill="white" />
<rect width="20" height="20" x="0" y="160" fill="blue" />
<rect width="20" height="20" x="20" y="160" fill="green" />
<rect width="20" height="20" x="40" y="160" fill="blue" />
<rect width="20" height="20" x="60" y="160" fill="white" />
<rect width="20" height="20" x="80" y="160" fill="white" />
<rect width="20" height="20" x="100" y="160" fill="blue" />
<rect width="20" height="20" x="120" y="160" fill="red" />
<rect width="20" height="20" x="140" y="160" fill="white" />
<rect width="20" height="20" x="160" y="160" fill="blue" />
</svg>
